<svg width="520" height="135" viewBox="0 0 520 135" fill="none" xmlns="http://www.w3.org/2000/svg">
<path d="M13.5223 89.7475C14.1571 94.5442 15.2998 98.899 16.9504 102.812C18.601 106.725 20.7595 110.07 23.4259 112.847C26.2192 115.498 29.5839 117.581 33.52 119.095C37.583 120.484 42.2809 121.178 47.6136 121.178C51.0418 121.178 54.5969 120.926 58.279 120.421C62.0881 119.79 65.5163 118.654 68.5636 117.013C71.6108 115.245 74.1502 112.847 76.1818 109.818C78.3402 106.788 79.4195 102.875 79.4195 98.0785C79.5465 95.1753 79.1021 92.2721 78.0863 89.3689C77.1975 86.4656 75.4834 83.878 72.944 81.6059C70.9125 79.7125 68.5001 78.0715 65.7068 76.683C63.0404 75.1683 60.2471 73.906 57.3268 72.8962C54.4065 71.7602 51.4862 70.8135 48.5659 70.0561C45.7725 69.1725 43.1062 68.4783 40.5668 67.9734C37.3925 67.3422 34.3453 66.5217 31.425 65.5119C28.6316 64.5021 25.7748 63.3661 22.8545 62.1038C17.6488 59.453 13.3318 56.0449 9.90363 51.8794C8.12605 49.4811 6.85636 46.7672 6.09454 43.7377C5.33272 40.7083 5.0153 37.5526 5.14227 34.2707C5.14227 28.338 6.22151 23.2258 8.37999 18.9341C10.5385 14.6424 13.4588 11.108 17.1409 8.331C20.823 5.554 25.0765 3.47125 29.9013 2.08276C34.8532 0.694251 40.1224 0 45.709 0C51.8036 0 57.3268 0.757363 62.2786 2.27209C67.3574 3.78681 71.7378 6.05891 75.4199 9.08836C79.229 12.1178 82.2763 15.9046 84.5618 20.4488C86.8472 24.8668 88.1804 30.1052 88.5613 36.1641H75.039C71.8648 21.2693 62.2786 13.8219 46.2804 13.8219C43.4871 13.8219 40.4398 14.1374 37.1386 14.7686C33.9644 15.2735 31.0441 16.2833 28.3777 17.798C25.7113 19.1865 23.4259 21.2062 21.5213 23.8569C19.7438 26.3815 18.855 29.6634 18.855 33.7027C18.855 37.9944 20.0612 41.4656 22.4736 44.1164C25.013 46.7672 28.1238 48.9762 31.8059 50.7433C33.5835 51.6269 35.488 52.4474 37.5195 53.2048C39.678 53.8359 41.8365 54.5302 43.995 55.2875C46.2804 55.9187 48.5659 56.5498 50.8513 57.1809C53.2637 57.6858 55.5492 58.2539 57.7077 58.885C62.4056 60.2735 66.913 61.9144 71.2299 63.8079C75.5469 65.575 79.2925 67.8471 82.4668 70.6241C85.641 73.4011 88.1804 76.8093 90.0849 80.8485C92.1164 84.8878 93.1322 89.8107 93.1322 95.6171C93.1322 97.3843 92.9417 99.2777 92.5608 101.297C92.3069 103.317 91.9895 105.337 91.6086 107.356C90.3389 112.784 88.1169 117.328 84.9427 120.989C81.7684 124.649 77.7054 127.742 72.7536 130.266C69.4524 132.16 65.7703 133.422 61.7072 134.053C57.6442 134.684 53.5812 135 49.5181 135C44.5663 135 39.7415 134.495 35.0436 133.485C30.4727 132.602 26.1557 131.15 22.0927 129.13C18.1567 126.985 14.6015 124.271 11.4273 120.989C8.25302 117.707 5.65015 113.731 3.61863 109.06C2.095 105.905 1.14273 102.749 0.761818 99.5933C0.380909 96.4376 0.126969 93.1557 0 89.7475H13.5223Z" fill="white"/>
<path d="M179.49 135C170.475 135 162.095 133.17 154.35 129.509C146.605 125.849 139.875 120.926 134.162 114.741C128.575 108.555 124.195 101.424 121.02 93.345C117.846 85.1403 116.259 76.5568 116.259 67.5947C116.386 58.6325 118.037 50.1122 121.211 42.0337C124.385 33.8289 128.766 26.6339 134.352 20.4488C139.939 14.1375 146.605 9.15147 154.35 5.49088C162.095 1.83029 170.475 0 179.49 0C188.505 0 196.821 1.83029 204.439 5.49088C212.058 9.15147 218.723 14.1375 224.437 20.4488C230.151 26.6339 234.595 33.8289 237.769 42.0337C241.07 50.1122 242.657 58.6325 242.53 67.5947C242.53 76.5568 240.88 85.1403 237.578 93.345C234.404 101.424 230.024 108.555 224.437 114.741C218.85 120.926 212.185 125.849 204.439 129.509C196.821 133.17 188.505 135 179.49 135ZM179.49 121.557C186.727 121.557 193.33 120.042 199.297 117.013C205.392 113.857 210.597 109.818 214.914 104.895C219.231 99.8457 222.533 94.1024 224.818 87.6648C227.103 81.101 228.246 74.4109 228.246 67.5947C228.246 60.7784 227.04 54.1515 224.628 47.7139C222.342 41.1501 219.041 35.3436 214.724 30.2945C210.407 25.2454 205.265 21.2062 199.297 18.1767C193.33 15.1473 186.727 13.6325 179.49 13.6325C172.126 13.6325 165.396 15.1473 159.302 18.1767C153.334 21.2062 148.192 25.2454 143.875 30.2945C139.685 35.3436 136.384 41.1501 133.971 47.7139C131.686 54.1515 130.543 60.7784 130.543 67.5947C130.543 74.4109 131.686 81.101 133.971 87.6648C136.384 94.1024 139.748 99.8457 144.065 104.895C148.382 109.818 153.525 113.857 159.492 117.013C165.46 120.042 172.126 121.557 179.49 121.557Z" fill="white"/>
<path d="M266.971 1.70407H298.205L328.107 75.9257H333.82L364.865 1.70407H395.718V133.485H382.005V15.3366H375.72L344.676 89.9369H317.632L287.159 15.3366H280.684V133.485H266.971V1.70407Z" fill="white"/>
<path d="M451.055 1.70407H485.147L520 133.485H505.906L494.289 89.9369H441.723L430.296 133.485H416.202L451.055 1.70407ZM490.86 76.115L474.481 15.3366H461.531L445.532 76.115H490.86Z" fill="white"/>
</svg>
